<svg width="152" height="152" viewBox="0 0 152 152" fill="none" xmlns="http://www.w3.org/2000/svg">
<g clip-path="url(#clip0_501_14)">
<path d="M75.9998 152C117.974 152 152 117.974 152 75.9998C152 34.0263 117.974 0 75.9998 0C34.0263 0 0 34.0263 0 75.9998C0 117.974 34.0263 152 75.9998 152Z" fill="black" fill-opacity="0.56"/>
<path d="M147.065 75.9998C147.065 115.248 115.248 147.065 75.9998 147.065C36.7518 147.065 4.93509 115.248 4.93509 75.9998C4.93509 36.7518 36.7518 4.93506 75.9998 4.93506C115.248 4.93506 147.065 36.7518 147.065 75.9998Z" stroke="white" stroke-width="9.87013"/>
<path d="M58.1122 100.299V53.2677C58.1122 49.4324 62.1495 47.0102 65.5809 48.8269L108.979 72.242C112.613 74.2603 112.613 79.3067 108.979 81.1234L65.7829 104.942C62.351 106.759 58.1122 104.337 58.1122 100.299Z" fill="white"/>
</g>
<defs>
<clipPath id="clip0_501_14">
<rect width="152" height="152" fill="white"/>
</clipPath>
</defs>
</svg>
